<?xml version="1.0" standalone="no"?>
<!DOCTYPE svg PUBLIC "-//W3C//DTD SVG 20010904//EN"
 "http://www.w3.org/TR/2001/REC-SVG-20010904/DTD/svg10.dtd">
<svg version="1.0" xmlns="http://www.w3.org/2000/svg"
 width="778.000000pt" height="663.000000pt" viewBox="0 0 778.000000 663.000000"
 preserveAspectRatio="xMidYMid meet">
<metadata>
Created by potrace 1.16, written by Peter Selinger 2001-2019
</metadata>
<g transform="translate(0.000000,663.000000) scale(0.100000,-0.100000)"
fill="#000000" stroke="none">
<path d="M2164 5690 c-179 -71 -259 -283 -172 -456 29 -59 92 -120 150 -147
26 -12 48 -24 48 -27 0 -3 -14 -19 -30 -37 l-29 -32 -56 25 c-192 88 -409 -12
-462 -212 -38 -146 32 -301 170 -374 l45 -24 -14 -45 c-54 -185 -81 -446 -65
-636 21 -266 76 -468 190 -700 145 -294 382 -563 651 -737 187 -122 440 -223
670 -270 102 -20 143 -23 360 -23 256 0 296 5 490 57 137 37 332 122 476 207
l51 31 939 -933 c1002 -996 958 -955 1081 -978 151 -28 323 64 391 209 24 50
27 70 27 157 0 175 79 83 -979 1143 l-931 932 28 48 c189 322 277 633 277 982
0 292 -55 532 -181 798 -229 483 -653 846 -1159 991 -203 58 -264 66 -520 66
-205 0 -249 -3 -346 -22 -208 -43 -421 -122 -585 -218 -62 -36 -78 -36 -79 3
0 28 -53 115 -93 154 -60 58 -116 81 -212 85 -63 2 -91 -1 -131 -17z m2586
-883 c0 -5 -139 -251 -310 -546 -291 -504 -310 -541 -310 -587 -1 -87 -55
-166 -129 -189 -39 -12 -108 -7 -140 9 -37 20 -76 67 -92 111 -12 32 -30 43
-318 188 l-306 154 -40 -14 c-30 -11 -52 -12 -87 -5 l-47 9 -278 -483 c-153
-266 -281 -483 -284 -484 -7 0 -89 122 -89 133 0 3 124 220 275 482 229 397
273 480 269 503 -8 40 12 106 42 142 107 127 324 52 324 -113 l0 -45 283 -142
282 -143 39 26 c47 33 99 43 148 30 l38 -10 85 146 c46 80 187 324 312 543
l228 396 53 -51 c28 -28 52 -55 52 -60z"/>
<path d="M1575 5542 c-174 -83 -165 -343 14 -407 61 -21 118 -19 176 9 59 27
77 46 104 106 43 95 10 215 -77 275 -56 38 -155 46 -217 17z"/>
<path d="M1165 5337 c-126 -71 -120 -249 9 -308 119 -54 246 27 246 156 0 132
-141 216 -255 152z"/>
</g>
</svg>
